<svg width="45" height="45" viewBox="0 0 45 45" fill="none" xmlns="http://www.w3.org/2000/svg">
<path d="M19.0003 5.31321C21.1661 4.06278 23.8345 4.06278 26.0003 5.31321L35.6343 10.8754C37.8001 12.1258 39.1343 14.4367 39.1343 16.9376V28.062C39.1343 30.5629 37.8001 32.8738 35.6343 34.1242L26.0003 39.6864C23.8345 40.9368 21.1661 40.9368 19.0003 39.6864L9.36626 34.1242C7.20045 32.8738 5.86626 30.5629 5.86626 28.062V16.9376C5.86626 14.4367 7.20045 12.1258 9.36626 10.8754L19.0003 5.31321Z" fill="#D9D9D9" fill-opacity="0.2"/>
<path d="M25.6478 15H19.3597C16.6283 15 15 16.6275 15 19.3575V25.635C15 28.3725 16.6283 30 19.3597 30H25.6403C28.3717 30 30 28.3725 30 25.6425V19.3575C30.0075 16.6275 28.3792 15 25.6478 15ZM23.9445 25.9725H20.2526C19.945 25.9725 19.6898 25.7175 19.6898 25.41C19.6898 25.1025 19.945 24.8475 20.2526 24.8475H23.9445C24.9049 24.8475 25.6928 24.0675 25.6928 23.1C25.6928 22.1325 24.9124 21.3525 23.9445 21.3525H20.1401L20.3352 21.5475C20.5528 21.765 20.5528 22.125 20.3352 22.3425C20.2226 22.455 20.08 22.5075 19.9375 22.5075C19.7949 22.5075 19.6523 22.455 19.5398 22.3425L18.3617 21.165C18.1441 20.9475 18.1441 20.5875 18.3617 20.37L19.5398 19.1925C19.7574 18.975 20.1175 18.975 20.3352 19.1925C20.5528 19.41 20.5528 19.77 20.3352 19.9875L20.08 20.235H23.9445C25.5277 20.235 26.8184 21.525 26.8184 23.1075C26.8184 24.69 25.5277 25.9725 23.9445 25.9725Z" fill="white"/>
<path d="M19.2 2.36714C21.242 1.18816 23.758 1.18816 25.8 2.36714L38.2856 9.57568C40.3276 10.7547 41.5856 12.9335 41.5856 15.2915V29.7085C41.5856 32.0665 40.3276 34.2453 38.2856 35.4243L25.8 42.6329C23.758 43.8118 21.242 43.8118 19.2 42.6329L6.71443 35.4243C4.67238 34.2453 3.41443 32.0665 3.41443 29.7085V15.2915C3.41443 12.9335 4.67238 10.7547 6.71443 9.57568L19.2 2.36714Z" stroke="white" stroke-width="0.8"/>
</svg>
