<svg width="45" height="45" viewBox="0 0 45 45" fill="none" xmlns="http://www.w3.org/2000/svg">
<path d="M19.0003 5.31321C21.1661 4.06278 23.8345 4.06278 26.0003 5.31321L35.6343 10.8754C37.8001 12.1258 39.1343 14.4367 39.1343 16.9376V28.062C39.1343 30.5629 37.8001 32.8738 35.6343 34.1242L26.0003 39.6864C23.8345 40.9368 21.1661 40.9368 19.0003 39.6864L9.36626 34.1242C7.20045 32.8738 5.86626 30.5629 5.86626 28.062V16.9376C5.86626 14.4367 7.20045 12.1258 9.36626 10.8754L19.0003 5.31321Z" fill="#D9D9D9" fill-opacity="0.2"/>
<path d="M29.1189 29.1199C31.627 26.6045 31.627 22.5255 29.1189 20.0272C27.3761 18.2681 24.868 17.7412 22.6575 18.4211L18.6616 14.4271C18.3725 14.1467 17.8029 13.9512 17.3948 14.0107L15.5414 14.2656C14.9292 14.3591 14.3511 14.9285 14.2661 15.5403L14.011 17.3928C13.9515 17.8007 14.1386 18.3701 14.4361 18.659L15.1333 19.3558C15.2948 19.5258 15.5669 19.5258 15.7369 19.3558L17.3863 17.7073C17.6328 17.4608 18.0409 17.4608 18.2875 17.7073C18.5341 17.9537 18.5341 18.3616 18.2875 18.608L16.6296 20.2651C16.4681 20.4266 16.4681 20.6985 16.6296 20.86L18.4235 22.6615C17.7349 24.8624 18.2705 27.3693 20.0134 29.1199C22.5215 31.6267 26.6109 31.6267 29.1189 29.1199ZM22.5044 24.6245C22.5044 23.4518 23.4567 22.5 24.6299 22.5C25.8032 22.5 26.7554 23.4518 26.7554 24.6245C26.7554 25.7972 25.8032 26.749 24.6299 26.749C23.4567 26.749 22.5044 25.7972 22.5044 24.6245Z" fill="white"/>
<path d="M19.2 2.36714C21.242 1.18816 23.758 1.18816 25.8 2.36714L38.2856 9.57568C40.3276 10.7547 41.5856 12.9335 41.5856 15.2915V29.7085C41.5856 32.0665 40.3276 34.2453 38.2856 35.4243L25.8 42.6329C23.758 43.8118 21.242 43.8118 19.2 42.6329L6.71443 35.4243C4.67238 34.2453 3.41443 32.0665 3.41443 29.7085V15.2915C3.41443 12.9335 4.67238 10.7547 6.71443 9.57568L19.2 2.36714Z" stroke="white" stroke-width="0.8"/>
</svg>
